<!-- 파일명: dumbbell.svg -->
<svg xmlns="http://www.w3.org/2000/svg" viewBox="0 0 640 512" fill="#3ddad7">
  <path d="M104 96H88c-13.3 0-24 10.7-24 24V144H24c-13.3 0-24 10.7-24 24V208c0 13.3 10.7 24 24 24H64v48H24c-13.3 0-24 10.7-24 24v40c0 13.3 10.7 24 24 24H64v24c0 13.3 10.7 24 24 24h16c13.3 0 24-10.7 24-24V96c0-13.3-10.7-24-24-24zm448 0h-16c-13.3 0-24 10.7-24 24V416c0 13.3 10.7 24 24 24h16c13.3 0 24-10.7 24-24V392h40c13.3 0 24-10.7 24-24V328c0-13.3-10.7-24-24-24H576V256h40c13.3 0 24-10.7 24-24V168c0-13.3-10.7-24-24-24H576V120c0-13.3-10.7-24-24-24zm-80 80c0-8.8-7.2-16-16-16H184c-8.8 0-16 7.2-16 16V336c0 8.8 7.2 16 16 16H456c8.8 0 16-7.2 16-16V176z"/>
</svg>
